PathFileType	4	(X/Y/Z)	RBDS027\RBDS027runT25.trc
DataRate	CameraRate	NumFrames	NumMarkers	Units	OrigDataRate	OrigDataStartFrame	OrigNumFrames
150.000000	150.000000	6	33	mm	150.000000	2812	4500
Frame#	Time	L.ASIS			L.Heel.Bottom			L.Heel.Lateral			L.Heel.Top			L.Iliac.Crest			L.MT1			L.MT5			L.PSIS			L.Shank.Bottom.Lateral			L.Shank.Bottom.Medial			L.Shank.Top.Lateral			L.Shank.Top.Medial			L.Thigh.Bottom.Lateral			L.Thigh.Bottom.Medial			L.Thigh.Top.Lateral			L.Thigh.Top.Medial			R.ASIS			R.ASY			R.Heel.Bottom			R.Heel.Lateral			R.Heel.Top			R.Iliac.Crest			R.MT1			R.MT5			R.PSIS			R.Shank.Bottom.Lateral			R.Shank.Bottom.Medial			R.Shank.Top.Lateral			R.Shank.Top.Medial			R.Thigh.Bottom.Lateral			R.Thigh.Bottom.Medial			R.Thigh.Top.Lateral			R.Thigh.Top.Medial			
		X1	Y1	Z1	X2	Y2	Z2	X3	Y3	Z3	X4	Y4	Z4	X5	Y5	Z5	X6	Y6	Z6	X7	Y7	Z7	X8	Y8	Z8	X9	Y9	Z9	X10	Y10	Z10	X11	Y11	Z11	X12	Y12	Z12	X13	Y13	Z13	X14	Y14	Z14	X15	Y15	Z15	X16	Y16	Z16	X17	Y17	Z17	X18	Y18	Z18	X19	Y19	Z19	X20	Y20	Z20	X21	Y21	Z21	X22	Y22	Z22	X23	Y23	Z23	X24	Y24	Z24	X25	Y25	Z25	X26	Y26	Z26	X27	Y27	Z27	X28	Y28	Z28	X29	Y29	Z29	X30	Y30	Z30	X31	Y31	Z31	X32	Y32	Z32	X33	Y33	Z33	

2813	18.74666666666667	2044.227924541436	839.3717832724684	843.3244305263494	1819.322168642962	31.63512793125194	955.2365165692834	1848.540070842003	50.13686020737428	908.5588225226861	1837.395523854133	78.95896427081601	955.9016017902975	1981.764331411592	892.3577381070168	816.3290150989625	2040.699272883063	34.11715510193201	980.2918881586298	1994.417496284243	34.13715073280357	871.7485665401356	1889.869383086256	861.2241713459512	947.2716062164488	1933.735868772989	138.1651138215764	880.6396999144899	1900.757123043465	162.9398354908656	918.1540490539616	1954.992270599474	211.2855632667339	854.0177660350727	1927.998646596544	235.5130213076914	894.2351736191803	2054.671602003934	493.7716308818833	802.4803512997121	2006.324400335998	471.3296580540295	850.1395842505141	1998.939866817148	588.3967649518405	793.7047233939114	1954.902615630618	568.8635301469037	841.7694040485239	2068.649481094894	819.3453581335859	1107.337792466054	1741.747215682195	229.5511530954398	1058.361599236074	1663.610288716434	400.566613241751	1030.224846316772	1681.748773843691	376.6576720221318	1076.658325143433	1709.548509515788	395.3589367447798	1033.48351019203	2021.290215806516	901.1513352832471	1132.719985944776	1695.129199765678	185.3325595856904	1008.676203558653	1686.538986983239	229.4372222897028	1118.378816521433	1905.429451809131	854.4707068610485	1040.093794285754	1793.677839893866	359.0996069412241	1090.154952232551	1794.816508049824	388.7411381592616	1048.924488310161	1873.861014811168	380.9190369778269	1106.680062947442	1870.893122337168	411.8944103115668	1063.52453031837	2081.947873955468	452.4906562088763	1133.72099853895	2030.48499031424	437.2324320658117	1084.175418931215	2033.70089422713	549.9683034710055	1149.766881570969	1981.959207834022	533.9677965635321	1106.231630503708	
2814	18.75333333333333	2042.707158482935	839.2083135487256	842.8593388909646	1802.648319607106	33.41360127293865	955.139303022239	1831.992176328523	51.49578511905607	908.3484280220633	1821.135903103221	80.58698704638844	955.6447516712043	1981.217469035768	893.359874928409	815.8662124169599	2023.794620477486	33.83318877535044	980.5224518080813	1977.486041284634	34.19375538170979	871.7792445318598	1888.468916319016	862.1860757863349	946.8141627732738	1918.465353193039	138.932817546387	880.3134701706086	1885.978887086699	164.3504019803383	917.8650948520495	1941.111598389396	211.5582197155369	853.6079126709546	1914.449116959762	236.4043731777846	893.6979692150924	2045.869957444382	492.3706811741266	801.683548536287	1997.233434498757	470.93066669085	849.4780118673535	1992.361366702895	588.2868260701816	793.3367755220364	1948.161029053846	569.6345919652351	841.5143923949015	2066.971861920141	819.9049104341991	1107.10716933064	1759.102766324589	223.421954539056	1058.673342709048	1674.200003944396	391.2711127301915	1030.178199374899	1693.414387023304	368.295648250876	1076.651831904407	1720.276201871237	387.8489151017463	1033.188433999424	2018.291571521869	901.532251405623	1132.793659445551	1714.058545610518	177.3316173830999	1009.251044803519	1704.180192302204	221.412121821464	1118.806062572379	1903.968108293201	855.2921249925681	1039.616438822185	1806.196185311778	354.4064329037071	1090.164957600956	1806.423393836026	384.1957542213706	1049.010936828706	1885.66932719644	378.5952286391062	1106.840220249304	1881.772928389252	409.6027361819004	1063.789277624737	2091.067207297	456.1505515855968	1134.550993762599	2040.35390351194	438.9260155033185	1084.839260152378	2039.335046380117	551.8534181829925	1150.23667444724	1988.158643848016	533.7534698786454	1106.808494618431	
2815	18.76	2041.221449695117	839.5954537120501	842.2219104624518	1785.9994682283	35.49747320615349	955.0438122653112	1815.476861979655	53.12862566741467	908.1398376842917	1804.944921138312	82.50337897762253	955.3853388668762	1980.810624556922	894.941755270431	815.384350601987	2006.855881456676	33.61000597770738	980.805769841773	1960.57035868653	34.33510573240765	871.8710644317683	1887.201896357763	863.6224000524836	946.3827022965698	1903.092115664449	139.978349923035	880.0759728994088	1871.030913218085	165.9728485429496	917.6475091210864	1926.989819205877	212.1462093300712	853.3145034828294	1900.634345148654	237.5441593272952	893.2976029721822	2036.668426985214	491.4719354409482	801.0586084202158	1987.758892526601	471.1675594701167	849.0408014349714	1985.543096504996	588.6966088312196	793.0736619346773	1941.197338384058	571.0513511920376	841.4189129195557	2065.60780966215	820.9740487850341	1106.634023745171	1776.890024518389	216.8757026240129	1058.801826870565	1684.752817084203	380.954011208163	1029.956661676054	1705.01735991863	359.0178814668371	1076.478593998172	1730.860462738663	379.5060130586174	1032.773215624827	2015.952992573719	902.4773822605376	1132.704495097172	1733.71562185599	168.8539851800791	1009.548712935161	1722.224425842717	212.7337714978864	1118.970136132738	1902.715086110139	856.6115180078053	1039.166179354955	1818.549087091931	349.2378776460292	1090.113195223246	1817.743233048383	379.2056642980279	1049.072959630478	1897.120005404161	376.1057669533162	1107.01581306997	1892.162031019911	407.1629815507611	1064.113651438532	2099.854623557437	460.7354920006219	1135.318757428118	2049.912169926002	441.6181796428959	1085.490623380282	2044.889562265409	554.6028676938661	1150.645140115912	1994.284963646265	534.5101775819523	1107.342477918113	
2816	18.76666666666667	2039.792114563383	840.5626238792113	841.402038720958	1769.418985946514	37.95598261553701	954.9361681925706	1799.035432645881	55.08266779532354	907.9180408149441	1788.877164026581	84.76846784153712	955.0944586843121	1980.475228906205	896.9985077998824	814.9019764826597	1989.903616787223	33.46536219111109	981.1081178794385	1943.700373411999	34.5579255842592	872.0025903030587	1886.092458252733	865.5359904223367	946.0053798785557	1887.689457125219	141.3586005398672	879.9026168572026	1855.969372291363	167.8668609762567	917.462806664237	1912.698761553751	213.112334806622	853.114484629874	1886.621463303529	238.9940474189613	893.010380550146	2027.159658943914	491.1381127044151	800.6445293131374	1977.997846174383	472.1063432896849	848.8681385613005	1978.561978416845	589.6681937540645	792.9322162509415	1934.093016735044	573.1649267517843	841.5051006596372	2064.569624103813	822.5537313870641	1105.930183387224	1795.093466172238	210.0181549212683	1058.733014031068	1695.362931720166	369.6679556693856	1029.556238741239	1716.638436818592	348.8698987540812	1076.128143623087	1741.37838955165	370.3685537541096	1032.232212180081	2014.309417099914	904.0146469578348	1132.456761164947	1754.090178379132	160.0435977750995	1009.560686367085	1740.689824549034	203.5190158336179	1118.864392481415	1901.681236338615	858.4346576878321	1038.765084354133	1830.766249201302	343.6304469731524	1089.981788851893	1828.816780346845	373.7808731809612	1049.08433107017	1908.221226306528	373.4462773081406	1107.178221339746	1902.077208060512	404.5446046218587	1064.4567276775	2108.262998480825	466.1698248665016	1136.007613600566	2059.074996971382	445.2419049167243	1086.136915728564	2050.336081927822	558.1737605367332	1150.993873698769	2000.284446756036	536.2110999437792	1107.848949557824	
2817	18.77333333333333	2038.451941527341	842.1228568514321	840.4045033957988	1752.952773953163	40.85653178329414	954.8063484916042	1782.711540898117	57.40368410558828	907.6715330778245	1772.991197943187	87.43930008250516	954.7492216646024	1980.157139962895	899.4563017799876	814.4385042965906	1972.957173976848	33.40355135189474	981.3970427792674	1926.903346778845	34.85488041237552	872.1501902400665	1885.168853081039	867.9296491738349	945.7003498621596	1872.329331298302	143.1227961730941	879.7684643062249	1840.859349144444	170.0835845146283	917.2799617923137	1898.30826083851	214.5114954618113	852.9814194362862	1872.479395976526	240.8069874298099	892.8116942152557	2017.436690236497	491.4226376490132	800.4639175018535	1968.045031376003	473.7990675883316	848.9775746872074	1971.497580158765	591.2368539670664	792.9191298531845	1926.930663844085	576.0141093862403	841.779144175082	2063.857570110468	824.6471642358956	1105.025359876356	1813.699741450525	202.9532874887103	1058.457439134203	1706.133503878608	357.4775253288446	1028.978677930907	1728.372034099004	337.9043675678805	1075.595074504735	1751.92192166529	360.4810805461737	1031.56215351612	2013.345677150222	906.1688479058386	1132.068196404967	1775.169390746294	151.0450690659565	1009.287735314488	1759.604046341143	193.8872721647633	1118.489857651773	1900.875137620833	860.7675932218046	1038.429495321423	1842.889998082157	337.6239654300813	1089.751236560817	1839.698742165784	367.9321611702753	1049.015925039118	1918.993956178613	370.6141649743149	1107.294260990706	1911.550942438586	401.715970350696	1064.770941660344	2116.252956071911	472.3603888037532	1136.604191807763	2067.766867690866	449.7111126449354	1086.785857531511	2055.642256117442	562.5064331795512	1151.29042251575	2006.103734599124	538.8089713162733	1108.34725309899	
2818	18.78	2037.243894899725	844.2681490901497	839.2499729201986	1736.648003814967	44.26070757772963	954.6505609710845	1766.550832872397	60.13458837598095	907.3953965697285	1757.347513141156	90.56576007268821	954.3376549210554	1979.828845421867	902.2782187192722	814.0116629765068	1956.034448298456	33.41592925177277	981.6452357863521	1910.202675656848	35.21666092231527	872.2917485640235	1884.461610603257	870.8021201068133	945.4725330783834	1857.078931321232	145.3099663541267	879.6536665444366	1825.772844284207	172.6624948747935	917.0821273743711	1883.883849573999	216.3882037136397	852.89191827709	1858.276958886121	243.02476884326	892.6825070695113	2007.588311446119	492.3657615543752	800.5218994900621	1957.989914198425	476.2798255301727	849.3643639095773	1964.42818928962	593.427343821112	793.0311964788174	1919.79107786144	579.6204799447671	842.2321222537748	2063.462663878831	827.2576514949034	1103.963789798393	1832.696206002354	195.778549994983	1057.971827195911	1717.171825877794	344.458072225055	1028.22936755807	1740.320632266871	326.1814884899354	1074.879098089976	1762.59250052451	349.8929163237443	1030.762150033268	2013.003226571253	908.9528155694323	1131.567714856624	1796.935196698778	141.9981694896576	1008.740436822224	1778.998941595332	183.9574068253412	1117.855381019878	1900.303280937881	863.6122645919671	1038.166796312753	1854.970655274612	331.2592413811036	1089.402052366777	1850.453700164505	361.6709120161076	1048.837426237817	1929.468386622991	367.6071046490562	1107.328812471539	1920.629229404515	398.6447386219008	1065.005567790419	2123.790552695328	479.1994137745745	1137.098342391613	2075.922949904241	454.923969538534	1087.442606255706	2060.771009292528	567.5263964958083	1151.545278764786	2011.69126742877	542.2380282213211	1108.854902835975	
